<mxfile host="app.diagrams.net" modified="2024-04-25T12:31:51.123Z" agent="Mozilla/5.0 (Windows NT 10.0; Win64; x64) AppleWebKit/537.36 (KHTML, like Gecko) Chrome/123.0.0.0 Safari/537.36" etag="Pmo3dfoComqZCtWQiCkQ" version="24.3.0" type="device">
  <diagram id="C5RBs43oDa-KdzZeNtuy" name="Page-1">
    <mxGraphModel dx="5854" dy="2120" grid="1" gridSize="10" guides="1" tooltips="1" connect="1" arrows="1" fold="1" page="1" pageScale="1" pageWidth="827" pageHeight="1169" math="0" shadow="0">
      <root>
        <mxCell id="WIyWlLk6GJQsqaUBKTNV-0" />
        <mxCell id="WIyWlLk6GJQsqaUBKTNV-1" parent="WIyWlLk6GJQsqaUBKTNV-0" />
        <mxCell id="WIyWlLk6GJQsqaUBKTNV-2" value="" style="rounded=0;html=1;jettySize=auto;orthogonalLoop=1;fontSize=11;endArrow=block;endFill=0;endSize=8;strokeWidth=1;shadow=0;labelBackgroundColor=none;edgeStyle=orthogonalEdgeStyle;" parent="WIyWlLk6GJQsqaUBKTNV-1" source="WIyWlLk6GJQsqaUBKTNV-3" target="WIyWlLk6GJQsqaUBKTNV-6" edge="1">
          <mxGeometry relative="1" as="geometry" />
        </mxCell>
        <mxCell id="WIyWlLk6GJQsqaUBKTNV-3" value="Start App" style="rounded=1;whiteSpace=wrap;html=1;fontSize=12;glass=0;strokeWidth=1;shadow=0;" parent="WIyWlLk6GJQsqaUBKTNV-1" vertex="1">
          <mxGeometry x="160" y="80" width="120" height="40" as="geometry" />
        </mxCell>
        <mxCell id="WIyWlLk6GJQsqaUBKTNV-4" value="If no Account Register" style="rounded=0;html=1;jettySize=auto;orthogonalLoop=1;fontSize=11;endArrow=block;endFill=0;endSize=8;strokeWidth=1;shadow=0;labelBackgroundColor=none;edgeStyle=orthogonalEdgeStyle;" parent="WIyWlLk6GJQsqaUBKTNV-1" source="WIyWlLk6GJQsqaUBKTNV-6" target="WIyWlLk6GJQsqaUBKTNV-10" edge="1">
          <mxGeometry x="-0.5" y="70" relative="1" as="geometry">
            <mxPoint as="offset" />
          </mxGeometry>
        </mxCell>
        <mxCell id="WIyWlLk6GJQsqaUBKTNV-6" value="Login" style="rhombus;whiteSpace=wrap;html=1;shadow=0;fontFamily=Helvetica;fontSize=12;align=center;strokeWidth=1;spacing=6;spacingTop=-4;" parent="WIyWlLk6GJQsqaUBKTNV-1" vertex="1">
          <mxGeometry x="170" y="170" width="100" height="80" as="geometry" />
        </mxCell>
        <mxCell id="WIyWlLk6GJQsqaUBKTNV-10" value="Register" style="rhombus;whiteSpace=wrap;html=1;shadow=0;fontFamily=Helvetica;fontSize=12;align=center;strokeWidth=1;spacing=6;spacingTop=-4;" parent="WIyWlLk6GJQsqaUBKTNV-1" vertex="1">
          <mxGeometry x="170" y="290" width="100" height="80" as="geometry" />
        </mxCell>
        <mxCell id="Bfotkhen-oeafZtFKZVV-0" value="Firebase Auth" style="shape=card;whiteSpace=wrap;html=1;" vertex="1" parent="WIyWlLk6GJQsqaUBKTNV-1">
          <mxGeometry x="550" y="170" width="70" height="110" as="geometry" />
        </mxCell>
        <mxCell id="Bfotkhen-oeafZtFKZVV-4" value="" style="rounded=0;html=1;jettySize=auto;orthogonalLoop=1;fontSize=11;endArrow=block;endFill=0;endSize=8;strokeWidth=1;shadow=0;labelBackgroundColor=none;edgeStyle=orthogonalEdgeStyle;entryX=0.5;entryY=1;entryDx=0;entryDy=0;entryPerimeter=0;exitX=1;exitY=0.5;exitDx=0;exitDy=0;" edge="1" parent="WIyWlLk6GJQsqaUBKTNV-1" source="WIyWlLk6GJQsqaUBKTNV-10" target="Bfotkhen-oeafZtFKZVV-0">
          <mxGeometry x="-0.5" y="70" relative="1" as="geometry">
            <mxPoint as="offset" />
            <mxPoint x="230" y="260" as="sourcePoint" />
            <mxPoint x="230" y="300" as="targetPoint" />
          </mxGeometry>
        </mxCell>
        <mxCell id="Bfotkhen-oeafZtFKZVV-5" value="Send Data to Firebase Auth" style="edgeLabel;html=1;align=center;verticalAlign=middle;resizable=0;points=[];" vertex="1" connectable="0" parent="Bfotkhen-oeafZtFKZVV-4">
          <mxGeometry x="0.2992" y="-1" relative="1" as="geometry">
            <mxPoint y="9" as="offset" />
          </mxGeometry>
        </mxCell>
        <mxCell id="Bfotkhen-oeafZtFKZVV-8" value="" style="rounded=0;html=1;jettySize=auto;orthogonalLoop=1;fontSize=11;endArrow=block;endFill=0;endSize=8;strokeWidth=1;shadow=0;labelBackgroundColor=none;edgeStyle=orthogonalEdgeStyle;entryX=1;entryY=0.5;entryDx=0;entryDy=0;exitX=0.023;exitY=0.371;exitDx=0;exitDy=0;exitPerimeter=0;" edge="1" parent="WIyWlLk6GJQsqaUBKTNV-1" source="Bfotkhen-oeafZtFKZVV-0" target="WIyWlLk6GJQsqaUBKTNV-6">
          <mxGeometry relative="1" as="geometry">
            <mxPoint x="230" y="130" as="sourcePoint" />
            <mxPoint x="230" y="180" as="targetPoint" />
          </mxGeometry>
        </mxCell>
        <mxCell id="Bfotkhen-oeafZtFKZVV-11" value="Exist Yes lets Pass /doesnt Exist dont" style="edgeLabel;html=1;align=center;verticalAlign=middle;resizable=0;points=[];" vertex="1" connectable="0" parent="Bfotkhen-oeafZtFKZVV-8">
          <mxGeometry x="-0.0297" y="2" relative="1" as="geometry">
            <mxPoint x="-1" y="12" as="offset" />
          </mxGeometry>
        </mxCell>
        <mxCell id="Bfotkhen-oeafZtFKZVV-9" value="" style="rounded=0;html=1;jettySize=auto;orthogonalLoop=1;fontSize=11;endArrow=block;endFill=0;endSize=8;strokeWidth=1;shadow=0;labelBackgroundColor=none;edgeStyle=orthogonalEdgeStyle;exitX=0.7;exitY=0.125;exitDx=0;exitDy=0;exitPerimeter=0;" edge="1" parent="WIyWlLk6GJQsqaUBKTNV-1" source="WIyWlLk6GJQsqaUBKTNV-6">
          <mxGeometry relative="1" as="geometry">
            <mxPoint x="240" y="140" as="sourcePoint" />
            <mxPoint x="560" y="180" as="targetPoint" />
          </mxGeometry>
        </mxCell>
        <mxCell id="Bfotkhen-oeafZtFKZVV-10" value="Checking if user exists" style="edgeLabel;html=1;align=center;verticalAlign=middle;resizable=0;points=[];" vertex="1" connectable="0" parent="Bfotkhen-oeafZtFKZVV-9">
          <mxGeometry x="-0.1413" y="-3" relative="1" as="geometry">
            <mxPoint x="34" y="-13" as="offset" />
          </mxGeometry>
        </mxCell>
        <mxCell id="Bfotkhen-oeafZtFKZVV-12" value="" style="rounded=0;html=1;jettySize=auto;orthogonalLoop=1;fontSize=11;endArrow=block;endFill=0;endSize=8;strokeWidth=1;shadow=0;labelBackgroundColor=none;edgeStyle=orthogonalEdgeStyle;exitX=0.5;exitY=1;exitDx=0;exitDy=0;" edge="1" parent="WIyWlLk6GJQsqaUBKTNV-1" source="WIyWlLk6GJQsqaUBKTNV-10">
          <mxGeometry relative="1" as="geometry">
            <mxPoint x="230" y="130" as="sourcePoint" />
            <mxPoint x="220" y="450" as="targetPoint" />
            <Array as="points">
              <mxPoint x="220" y="440" />
            </Array>
          </mxGeometry>
        </mxCell>
        <mxCell id="Bfotkhen-oeafZtFKZVV-25" value="Goes to MainActivity with unique Key" style="edgeLabel;html=1;align=center;verticalAlign=middle;resizable=0;points=[];" vertex="1" connectable="0" parent="Bfotkhen-oeafZtFKZVV-12">
          <mxGeometry x="0.165" y="2" relative="1" as="geometry">
            <mxPoint as="offset" />
          </mxGeometry>
        </mxCell>
        <mxCell id="Bfotkhen-oeafZtFKZVV-14" value="MainActivity" style="rounded=1;whiteSpace=wrap;html=1;" vertex="1" parent="WIyWlLk6GJQsqaUBKTNV-1">
          <mxGeometry x="160" y="450" width="120" height="60" as="geometry" />
        </mxCell>
        <mxCell id="Bfotkhen-oeafZtFKZVV-22" value="" style="endArrow=none;dashed=1;html=1;dashPattern=1 3;strokeWidth=2;rounded=0;entryX=0;entryY=0.5;entryDx=0;entryDy=0;" edge="1" parent="WIyWlLk6GJQsqaUBKTNV-1" target="WIyWlLk6GJQsqaUBKTNV-6">
          <mxGeometry width="50" height="50" relative="1" as="geometry">
            <mxPoint x="90" y="400" as="sourcePoint" />
            <mxPoint x="140" y="230" as="targetPoint" />
            <Array as="points">
              <mxPoint x="90" y="210" />
            </Array>
          </mxGeometry>
        </mxCell>
        <mxCell id="Bfotkhen-oeafZtFKZVV-24" value="Skips to MainActivity" style="edgeLabel;html=1;align=center;verticalAlign=middle;resizable=0;points=[];" vertex="1" connectable="0" parent="Bfotkhen-oeafZtFKZVV-22">
          <mxGeometry x="-0.2859" y="-4" relative="1" as="geometry">
            <mxPoint as="offset" />
          </mxGeometry>
        </mxCell>
        <mxCell id="Bfotkhen-oeafZtFKZVV-23" value="" style="endArrow=none;dashed=1;html=1;dashPattern=1 3;strokeWidth=2;rounded=0;" edge="1" parent="WIyWlLk6GJQsqaUBKTNV-1">
          <mxGeometry width="50" height="50" relative="1" as="geometry">
            <mxPoint x="90" y="400" as="sourcePoint" />
            <mxPoint x="220" y="400" as="targetPoint" />
          </mxGeometry>
        </mxCell>
        <mxCell id="Bfotkhen-oeafZtFKZVV-26" value="Logout Button" style="rhombus;whiteSpace=wrap;html=1;" vertex="1" parent="WIyWlLk6GJQsqaUBKTNV-1">
          <mxGeometry x="30" y="580" width="80" height="80" as="geometry" />
        </mxCell>
        <mxCell id="Bfotkhen-oeafZtFKZVV-29" value="" style="endArrow=none;html=1;rounded=0;" edge="1" parent="WIyWlLk6GJQsqaUBKTNV-1">
          <mxGeometry width="50" height="50" relative="1" as="geometry">
            <mxPoint x="-40" y="620" as="sourcePoint" />
            <mxPoint x="-40" y="180" as="targetPoint" />
          </mxGeometry>
        </mxCell>
        <mxCell id="Bfotkhen-oeafZtFKZVV-31" value="Logsout current Sitting" style="edgeLabel;html=1;align=center;verticalAlign=middle;resizable=0;points=[];" vertex="1" connectable="0" parent="Bfotkhen-oeafZtFKZVV-29">
          <mxGeometry x="-0.6629" y="1" relative="1" as="geometry">
            <mxPoint as="offset" />
          </mxGeometry>
        </mxCell>
        <mxCell id="Bfotkhen-oeafZtFKZVV-30" value="" style="endArrow=classic;html=1;rounded=0;entryX=0.408;entryY=0.13;entryDx=0;entryDy=0;entryPerimeter=0;" edge="1" parent="WIyWlLk6GJQsqaUBKTNV-1" target="WIyWlLk6GJQsqaUBKTNV-6">
          <mxGeometry width="50" height="50" relative="1" as="geometry">
            <mxPoint x="-40" y="180" as="sourcePoint" />
            <mxPoint x="100" y="130" as="targetPoint" />
          </mxGeometry>
        </mxCell>
        <mxCell id="Bfotkhen-oeafZtFKZVV-32" value="" style="endArrow=classic;html=1;rounded=0;exitX=0;exitY=0.5;exitDx=0;exitDy=0;entryX=0.5;entryY=0;entryDx=0;entryDy=0;" edge="1" parent="WIyWlLk6GJQsqaUBKTNV-1" source="Bfotkhen-oeafZtFKZVV-14" target="Bfotkhen-oeafZtFKZVV-26">
          <mxGeometry width="50" height="50" relative="1" as="geometry">
            <mxPoint x="170" y="580" as="sourcePoint" />
            <mxPoint x="220" y="530" as="targetPoint" />
            <Array as="points">
              <mxPoint x="70" y="480" />
              <mxPoint x="70" y="540" />
            </Array>
          </mxGeometry>
        </mxCell>
        <mxCell id="Bfotkhen-oeafZtFKZVV-33" value="Logout Button" style="edgeLabel;html=1;align=center;verticalAlign=middle;resizable=0;points=[];" vertex="1" connectable="0" parent="Bfotkhen-oeafZtFKZVV-32">
          <mxGeometry x="-0.0556" y="-1" relative="1" as="geometry">
            <mxPoint as="offset" />
          </mxGeometry>
        </mxCell>
        <mxCell id="Bfotkhen-oeafZtFKZVV-34" value="" style="endArrow=none;html=1;rounded=0;" edge="1" parent="WIyWlLk6GJQsqaUBKTNV-1">
          <mxGeometry width="50" height="50" relative="1" as="geometry">
            <mxPoint x="-40" y="620" as="sourcePoint" />
            <mxPoint x="30" y="619.5" as="targetPoint" />
          </mxGeometry>
        </mxCell>
        <mxCell id="Bfotkhen-oeafZtFKZVV-37" value="Warenkorb Button" style="rhombus;whiteSpace=wrap;html=1;" vertex="1" parent="WIyWlLk6GJQsqaUBKTNV-1">
          <mxGeometry x="320" y="580" width="80" height="80" as="geometry" />
        </mxCell>
        <mxCell id="Bfotkhen-oeafZtFKZVV-38" value="Bestellhistorie Button" style="rhombus;whiteSpace=wrap;html=1;" vertex="1" parent="WIyWlLk6GJQsqaUBKTNV-1">
          <mxGeometry x="480" y="580" width="80" height="80" as="geometry" />
        </mxCell>
        <mxCell id="Bfotkhen-oeafZtFKZVV-39" value="Shoppingmenü" style="rhombus;whiteSpace=wrap;html=1;" vertex="1" parent="WIyWlLk6GJQsqaUBKTNV-1">
          <mxGeometry x="640" y="580" width="80" height="80" as="geometry" />
        </mxCell>
        <mxCell id="Bfotkhen-oeafZtFKZVV-40" value="" style="endArrow=none;html=1;rounded=0;exitX=1;exitY=0.5;exitDx=0;exitDy=0;" edge="1" parent="WIyWlLk6GJQsqaUBKTNV-1" source="Bfotkhen-oeafZtFKZVV-14">
          <mxGeometry width="50" height="50" relative="1" as="geometry">
            <mxPoint x="290" y="480" as="sourcePoint" />
            <mxPoint x="520" y="480" as="targetPoint" />
          </mxGeometry>
        </mxCell>
        <mxCell id="Bfotkhen-oeafZtFKZVV-41" value="" style="endArrow=none;html=1;rounded=0;" edge="1" parent="WIyWlLk6GJQsqaUBKTNV-1">
          <mxGeometry width="50" height="50" relative="1" as="geometry">
            <mxPoint x="520" y="520" as="sourcePoint" />
            <mxPoint x="520" y="480" as="targetPoint" />
          </mxGeometry>
        </mxCell>
        <mxCell id="Bfotkhen-oeafZtFKZVV-42" value="" style="endArrow=classic;html=1;rounded=0;entryX=0.5;entryY=0;entryDx=0;entryDy=0;" edge="1" parent="WIyWlLk6GJQsqaUBKTNV-1" target="Bfotkhen-oeafZtFKZVV-37">
          <mxGeometry width="50" height="50" relative="1" as="geometry">
            <mxPoint x="520" y="520" as="sourcePoint" />
            <mxPoint x="360" y="520" as="targetPoint" />
            <Array as="points">
              <mxPoint x="360" y="520" />
            </Array>
          </mxGeometry>
        </mxCell>
        <mxCell id="Bfotkhen-oeafZtFKZVV-43" value="" style="endArrow=classic;html=1;rounded=0;entryX=0.5;entryY=0;entryDx=0;entryDy=0;" edge="1" parent="WIyWlLk6GJQsqaUBKTNV-1" target="Bfotkhen-oeafZtFKZVV-38">
          <mxGeometry width="50" height="50" relative="1" as="geometry">
            <mxPoint x="520" y="520" as="sourcePoint" />
            <mxPoint x="500" y="540" as="targetPoint" />
            <Array as="points" />
          </mxGeometry>
        </mxCell>
        <mxCell id="Bfotkhen-oeafZtFKZVV-44" value="" style="endArrow=classic;html=1;rounded=0;entryX=0.5;entryY=0;entryDx=0;entryDy=0;" edge="1" parent="WIyWlLk6GJQsqaUBKTNV-1" target="Bfotkhen-oeafZtFKZVV-39">
          <mxGeometry width="50" height="50" relative="1" as="geometry">
            <mxPoint x="520" y="520" as="sourcePoint" />
            <mxPoint x="650" y="470" as="targetPoint" />
            <Array as="points">
              <mxPoint x="680" y="520" />
            </Array>
          </mxGeometry>
        </mxCell>
        <mxCell id="Bfotkhen-oeafZtFKZVV-45" value="Warenkorb" style="rounded=1;whiteSpace=wrap;html=1;" vertex="1" parent="WIyWlLk6GJQsqaUBKTNV-1">
          <mxGeometry y="800" width="120" height="60" as="geometry" />
        </mxCell>
        <mxCell id="Bfotkhen-oeafZtFKZVV-46" value="Bestellhistorie" style="rounded=1;whiteSpace=wrap;html=1;" vertex="1" parent="WIyWlLk6GJQsqaUBKTNV-1">
          <mxGeometry y="1040" width="120" height="60" as="geometry" />
        </mxCell>
        <mxCell id="Bfotkhen-oeafZtFKZVV-47" value="Shoppingmenü" style="rounded=1;whiteSpace=wrap;html=1;" vertex="1" parent="WIyWlLk6GJQsqaUBKTNV-1">
          <mxGeometry y="1260" width="120" height="60" as="geometry" />
        </mxCell>
        <mxCell id="Bfotkhen-oeafZtFKZVV-49" value="" style="endArrow=classic;html=1;rounded=0;entryX=1;entryY=0.5;entryDx=0;entryDy=0;exitX=0.5;exitY=1;exitDx=0;exitDy=0;" edge="1" parent="WIyWlLk6GJQsqaUBKTNV-1" source="Bfotkhen-oeafZtFKZVV-37" target="Bfotkhen-oeafZtFKZVV-45">
          <mxGeometry width="50" height="50" relative="1" as="geometry">
            <mxPoint x="70" y="840" as="sourcePoint" />
            <mxPoint x="120" y="790" as="targetPoint" />
            <Array as="points">
              <mxPoint x="360" y="830" />
            </Array>
          </mxGeometry>
        </mxCell>
        <mxCell id="Bfotkhen-oeafZtFKZVV-51" value="" style="endArrow=classic;html=1;rounded=0;exitX=0.5;exitY=1;exitDx=0;exitDy=0;entryX=1;entryY=0.75;entryDx=0;entryDy=0;" edge="1" parent="WIyWlLk6GJQsqaUBKTNV-1" source="Bfotkhen-oeafZtFKZVV-38" target="Bfotkhen-oeafZtFKZVV-46">
          <mxGeometry width="50" height="50" relative="1" as="geometry">
            <mxPoint x="520" y="670" as="sourcePoint" />
            <mxPoint x="430" y="970" as="targetPoint" />
            <Array as="points">
              <mxPoint x="520" y="1085" />
            </Array>
          </mxGeometry>
        </mxCell>
        <mxCell id="Bfotkhen-oeafZtFKZVV-52" value="" style="endArrow=classic;html=1;rounded=0;exitX=0.5;exitY=1;exitDx=0;exitDy=0;entryX=1;entryY=0.5;entryDx=0;entryDy=0;" edge="1" parent="WIyWlLk6GJQsqaUBKTNV-1" source="Bfotkhen-oeafZtFKZVV-39" target="Bfotkhen-oeafZtFKZVV-47">
          <mxGeometry width="50" height="50" relative="1" as="geometry">
            <mxPoint x="680" y="710" as="sourcePoint" />
            <mxPoint x="680" y="1437.230694110577" as="targetPoint" />
            <Array as="points">
              <mxPoint x="680" y="1290" />
            </Array>
          </mxGeometry>
        </mxCell>
        <mxCell id="Bfotkhen-oeafZtFKZVV-54" value="" style="endArrow=none;dashed=1;html=1;dashPattern=1 3;strokeWidth=2;rounded=0;entryX=0.5;entryY=1;entryDx=0;entryDy=0;" edge="1" parent="WIyWlLk6GJQsqaUBKTNV-1" target="Bfotkhen-oeafZtFKZVV-14">
          <mxGeometry width="50" height="50" relative="1" as="geometry">
            <mxPoint x="220" y="1390" as="sourcePoint" />
            <mxPoint x="219" y="530" as="targetPoint" />
          </mxGeometry>
        </mxCell>
        <mxCell id="Bfotkhen-oeafZtFKZVV-55" value="Back Button" style="rhombus;whiteSpace=wrap;html=1;" vertex="1" parent="WIyWlLk6GJQsqaUBKTNV-1">
          <mxGeometry x="20" y="880" width="80" height="80" as="geometry" />
        </mxCell>
        <mxCell id="Bfotkhen-oeafZtFKZVV-56" value="Back Button" style="rhombus;whiteSpace=wrap;html=1;" vertex="1" parent="WIyWlLk6GJQsqaUBKTNV-1">
          <mxGeometry x="20" y="1120" width="80" height="80" as="geometry" />
        </mxCell>
        <mxCell id="Bfotkhen-oeafZtFKZVV-57" value="Back Button" style="rhombus;whiteSpace=wrap;html=1;" vertex="1" parent="WIyWlLk6GJQsqaUBKTNV-1">
          <mxGeometry x="20" y="1350" width="80" height="80" as="geometry" />
        </mxCell>
        <mxCell id="Bfotkhen-oeafZtFKZVV-58" value="" style="endArrow=none;html=1;rounded=0;entryX=0.5;entryY=1;entryDx=0;entryDy=0;" edge="1" parent="WIyWlLk6GJQsqaUBKTNV-1" target="Bfotkhen-oeafZtFKZVV-45">
          <mxGeometry width="50" height="50" relative="1" as="geometry">
            <mxPoint x="60" y="880" as="sourcePoint" />
            <mxPoint x="100" y="1020" as="targetPoint" />
          </mxGeometry>
        </mxCell>
        <mxCell id="Bfotkhen-oeafZtFKZVV-61" value="" style="endArrow=none;dashed=1;html=1;dashPattern=1 3;strokeWidth=2;rounded=0;exitX=1;exitY=0.5;exitDx=0;exitDy=0;" edge="1" parent="WIyWlLk6GJQsqaUBKTNV-1" source="Bfotkhen-oeafZtFKZVV-55">
          <mxGeometry width="50" height="50" relative="1" as="geometry">
            <mxPoint x="50" y="1070" as="sourcePoint" />
            <mxPoint x="210" y="920" as="targetPoint" />
          </mxGeometry>
        </mxCell>
        <mxCell id="Bfotkhen-oeafZtFKZVV-63" value="" style="endArrow=none;html=1;rounded=0;entryX=0.5;entryY=1;entryDx=0;entryDy=0;exitX=0.5;exitY=0;exitDx=0;exitDy=0;" edge="1" parent="WIyWlLk6GJQsqaUBKTNV-1" source="Bfotkhen-oeafZtFKZVV-56" target="Bfotkhen-oeafZtFKZVV-46">
          <mxGeometry width="50" height="50" relative="1" as="geometry">
            <mxPoint x="50" y="1040" as="sourcePoint" />
            <mxPoint x="100" y="990" as="targetPoint" />
          </mxGeometry>
        </mxCell>
        <mxCell id="Bfotkhen-oeafZtFKZVV-64" value="" style="endArrow=none;html=1;rounded=0;entryX=0.5;entryY=1;entryDx=0;entryDy=0;exitX=0.5;exitY=0;exitDx=0;exitDy=0;" edge="1" parent="WIyWlLk6GJQsqaUBKTNV-1" source="Bfotkhen-oeafZtFKZVV-57" target="Bfotkhen-oeafZtFKZVV-47">
          <mxGeometry width="50" height="50" relative="1" as="geometry">
            <mxPoint x="50" y="1060" as="sourcePoint" />
            <mxPoint x="100" y="1010" as="targetPoint" />
          </mxGeometry>
        </mxCell>
        <mxCell id="Bfotkhen-oeafZtFKZVV-65" value="" style="endArrow=none;dashed=1;html=1;dashPattern=1 3;strokeWidth=2;rounded=0;exitX=1;exitY=0.5;exitDx=0;exitDy=0;" edge="1" parent="WIyWlLk6GJQsqaUBKTNV-1" source="Bfotkhen-oeafZtFKZVV-56">
          <mxGeometry width="50" height="50" relative="1" as="geometry">
            <mxPoint x="50" y="1060" as="sourcePoint" />
            <mxPoint x="220" y="1160" as="targetPoint" />
          </mxGeometry>
        </mxCell>
        <mxCell id="Bfotkhen-oeafZtFKZVV-67" value="" style="endArrow=none;dashed=1;html=1;dashPattern=1 3;strokeWidth=2;rounded=0;exitX=1;exitY=0.5;exitDx=0;exitDy=0;" edge="1" parent="WIyWlLk6GJQsqaUBKTNV-1" source="Bfotkhen-oeafZtFKZVV-57">
          <mxGeometry width="50" height="50" relative="1" as="geometry">
            <mxPoint x="30" y="1060" as="sourcePoint" />
            <mxPoint x="220" y="1390" as="targetPoint" />
          </mxGeometry>
        </mxCell>
        <mxCell id="Bfotkhen-oeafZtFKZVV-69" value="" style="endArrow=none;html=1;rounded=0;exitX=0;exitY=0.5;exitDx=0;exitDy=0;" edge="1" parent="WIyWlLk6GJQsqaUBKTNV-1" source="Bfotkhen-oeafZtFKZVV-47">
          <mxGeometry width="50" height="50" relative="1" as="geometry">
            <mxPoint x="-160" y="1400" as="sourcePoint" />
            <mxPoint x="-250" y="1290" as="targetPoint" />
          </mxGeometry>
        </mxCell>
        <mxCell id="Bfotkhen-oeafZtFKZVV-71" value="" style="endArrow=none;html=1;rounded=0;" edge="1" parent="WIyWlLk6GJQsqaUBKTNV-1">
          <mxGeometry width="50" height="50" relative="1" as="geometry">
            <mxPoint x="-250" y="1390" as="sourcePoint" />
            <mxPoint x="-250" y="1290" as="targetPoint" />
          </mxGeometry>
        </mxCell>
        <mxCell id="Bfotkhen-oeafZtFKZVV-74" value="" style="endArrow=classic;html=1;rounded=0;" edge="1" parent="WIyWlLk6GJQsqaUBKTNV-1">
          <mxGeometry width="50" height="50" relative="1" as="geometry">
            <mxPoint x="-250" y="1390" as="sourcePoint" />
            <mxPoint x="-250" y="1520" as="targetPoint" />
          </mxGeometry>
        </mxCell>
        <mxCell id="Bfotkhen-oeafZtFKZVV-75" value="Brot" style="rhombus;whiteSpace=wrap;html=1;" vertex="1" parent="WIyWlLk6GJQsqaUBKTNV-1">
          <mxGeometry x="-290" y="1520" width="80" height="80" as="geometry" />
        </mxCell>
        <mxCell id="Bfotkhen-oeafZtFKZVV-76" value="" style="endArrow=classic;html=1;rounded=0;" edge="1" parent="WIyWlLk6GJQsqaUBKTNV-1" target="Bfotkhen-oeafZtFKZVV-77">
          <mxGeometry width="50" height="50" relative="1" as="geometry">
            <mxPoint x="-250" y="1400" as="sourcePoint" />
            <mxPoint x="-260" y="1450" as="targetPoint" />
            <Array as="points">
              <mxPoint x="-400" y="1400" />
            </Array>
          </mxGeometry>
        </mxCell>
        <mxCell id="Bfotkhen-oeafZtFKZVV-77" value="Früchte" style="rhombus;whiteSpace=wrap;html=1;" vertex="1" parent="WIyWlLk6GJQsqaUBKTNV-1">
          <mxGeometry x="-440" y="1520" width="80" height="80" as="geometry" />
        </mxCell>
        <mxCell id="Bfotkhen-oeafZtFKZVV-78" value="Süßigkeiten" style="rhombus;whiteSpace=wrap;html=1;" vertex="1" parent="WIyWlLk6GJQsqaUBKTNV-1">
          <mxGeometry x="-150" y="1520" width="80" height="80" as="geometry" />
        </mxCell>
        <mxCell id="Bfotkhen-oeafZtFKZVV-79" value="" style="endArrow=classic;html=1;rounded=0;entryX=0.5;entryY=0;entryDx=0;entryDy=0;" edge="1" parent="WIyWlLk6GJQsqaUBKTNV-1" target="Bfotkhen-oeafZtFKZVV-78">
          <mxGeometry width="50" height="50" relative="1" as="geometry">
            <mxPoint x="-250" y="1400" as="sourcePoint" />
            <mxPoint x="-230" y="1470" as="targetPoint" />
            <Array as="points">
              <mxPoint x="-110" y="1400" />
            </Array>
          </mxGeometry>
        </mxCell>
        <mxCell id="Bfotkhen-oeafZtFKZVV-80" value="" style="endArrow=none;dashed=1;html=1;dashPattern=1 3;strokeWidth=2;rounded=0;" edge="1" parent="WIyWlLk6GJQsqaUBKTNV-1">
          <mxGeometry width="50" height="50" relative="1" as="geometry">
            <mxPoint x="-400" y="1720" as="sourcePoint" />
            <mxPoint x="-400" y="1640" as="targetPoint" />
          </mxGeometry>
        </mxCell>
        <mxCell id="Bfotkhen-oeafZtFKZVV-81" value="" style="endArrow=none;dashed=1;html=1;dashPattern=1 3;strokeWidth=2;rounded=0;" edge="1" parent="WIyWlLk6GJQsqaUBKTNV-1">
          <mxGeometry width="50" height="50" relative="1" as="geometry">
            <mxPoint x="-111" y="1720" as="sourcePoint" />
            <mxPoint x="-110.62" y="1640" as="targetPoint" />
          </mxGeometry>
        </mxCell>
        <mxCell id="Bfotkhen-oeafZtFKZVV-82" value="" style="endArrow=none;dashed=1;html=1;dashPattern=1 3;strokeWidth=2;rounded=0;" edge="1" parent="WIyWlLk6GJQsqaUBKTNV-1">
          <mxGeometry width="50" height="50" relative="1" as="geometry">
            <mxPoint x="-250.4" y="1720" as="sourcePoint" />
            <mxPoint x="-250.4" y="1640" as="targetPoint" />
          </mxGeometry>
        </mxCell>
        <mxCell id="Bfotkhen-oeafZtFKZVV-83" value="" style="endArrow=none;dashed=1;html=1;dashPattern=1 3;strokeWidth=2;rounded=0;" edge="1" parent="WIyWlLk6GJQsqaUBKTNV-1">
          <mxGeometry width="50" height="50" relative="1" as="geometry">
            <mxPoint x="-400" y="1720" as="sourcePoint" />
            <mxPoint x="-110" y="1720" as="targetPoint" />
          </mxGeometry>
        </mxCell>
        <mxCell id="Bfotkhen-oeafZtFKZVV-85" value="Abläufe sind gleich deshalb auf Produkt zusammengefasst auf &quot;Produkt&quot;" style="text;html=1;align=center;verticalAlign=middle;resizable=0;points=[];autosize=1;strokeColor=none;fillColor=none;" vertex="1" parent="WIyWlLk6GJQsqaUBKTNV-1">
          <mxGeometry x="-795" y="1700" width="410" height="30" as="geometry" />
        </mxCell>
        <mxCell id="Bfotkhen-oeafZtFKZVV-86" value="Produkt" style="rounded=1;whiteSpace=wrap;html=1;" vertex="1" parent="WIyWlLk6GJQsqaUBKTNV-1">
          <mxGeometry x="-310" y="1800" width="120" height="60" as="geometry" />
        </mxCell>
        <mxCell id="Bfotkhen-oeafZtFKZVV-88" value="" style="endArrow=classic;html=1;rounded=0;entryX=0.5;entryY=0;entryDx=0;entryDy=0;" edge="1" parent="WIyWlLk6GJQsqaUBKTNV-1" target="Bfotkhen-oeafZtFKZVV-86">
          <mxGeometry width="50" height="50" relative="1" as="geometry">
            <mxPoint x="-250" y="1720" as="sourcePoint" />
            <mxPoint x="-230" y="1620" as="targetPoint" />
          </mxGeometry>
        </mxCell>
        <mxCell id="Bfotkhen-oeafZtFKZVV-89" value="Back Button" style="rhombus;whiteSpace=wrap;html=1;" vertex="1" parent="WIyWlLk6GJQsqaUBKTNV-1">
          <mxGeometry x="-40" y="1780" width="80" height="80" as="geometry" />
        </mxCell>
        <mxCell id="Bfotkhen-oeafZtFKZVV-90" value="" style="endArrow=none;dashed=1;html=1;dashPattern=1 3;strokeWidth=2;rounded=0;exitX=1.035;exitY=0.349;exitDx=0;exitDy=0;entryX=0;entryY=0.5;entryDx=0;entryDy=0;exitPerimeter=0;" edge="1" parent="WIyWlLk6GJQsqaUBKTNV-1" source="Bfotkhen-oeafZtFKZVV-86" target="Bfotkhen-oeafZtFKZVV-89">
          <mxGeometry width="50" height="50" relative="1" as="geometry">
            <mxPoint x="-160" y="1840" as="sourcePoint" />
            <mxPoint x="-110" y="1790" as="targetPoint" />
          </mxGeometry>
        </mxCell>
        <mxCell id="Bfotkhen-oeafZtFKZVV-91" value="" style="endArrow=none;dashed=1;html=1;dashPattern=1 3;strokeWidth=2;rounded=0;exitX=0.5;exitY=0;exitDx=0;exitDy=0;entryX=0;entryY=1;entryDx=0;entryDy=0;" edge="1" parent="WIyWlLk6GJQsqaUBKTNV-1" source="Bfotkhen-oeafZtFKZVV-89" target="Bfotkhen-oeafZtFKZVV-47">
          <mxGeometry width="50" height="50" relative="1" as="geometry">
            <mxPoint x="-40" y="1730" as="sourcePoint" />
            <mxPoint y="1450" as="targetPoint" />
          </mxGeometry>
        </mxCell>
        <mxCell id="Bfotkhen-oeafZtFKZVV-92" value="Produkt 1 Kaufen" style="rhombus;whiteSpace=wrap;html=1;" vertex="1" parent="WIyWlLk6GJQsqaUBKTNV-1">
          <mxGeometry x="-440" y="1990" width="80" height="80" as="geometry" />
        </mxCell>
        <mxCell id="Bfotkhen-oeafZtFKZVV-93" value="Produkt 2 Kaufen" style="rhombus;whiteSpace=wrap;html=1;" vertex="1" parent="WIyWlLk6GJQsqaUBKTNV-1">
          <mxGeometry x="-290" y="1990" width="80" height="80" as="geometry" />
        </mxCell>
        <mxCell id="Bfotkhen-oeafZtFKZVV-95" value="Produkt 3 Kauufen" style="rhombus;whiteSpace=wrap;html=1;" vertex="1" parent="WIyWlLk6GJQsqaUBKTNV-1">
          <mxGeometry x="-150" y="1990" width="80" height="80" as="geometry" />
        </mxCell>
        <mxCell id="Bfotkhen-oeafZtFKZVV-96" value="" style="endArrow=none;html=1;rounded=0;exitX=0.5;exitY=1;exitDx=0;exitDy=0;" edge="1" parent="WIyWlLk6GJQsqaUBKTNV-1" source="Bfotkhen-oeafZtFKZVV-86">
          <mxGeometry width="50" height="50" relative="1" as="geometry">
            <mxPoint x="-190" y="1900" as="sourcePoint" />
            <mxPoint x="-250" y="1930" as="targetPoint" />
          </mxGeometry>
        </mxCell>
        <mxCell id="Bfotkhen-oeafZtFKZVV-97" value="" style="endArrow=classic;html=1;rounded=0;entryX=0.5;entryY=0;entryDx=0;entryDy=0;" edge="1" parent="WIyWlLk6GJQsqaUBKTNV-1" target="Bfotkhen-oeafZtFKZVV-92">
          <mxGeometry width="50" height="50" relative="1" as="geometry">
            <mxPoint x="-250" y="1930" as="sourcePoint" />
            <mxPoint x="-480" y="1860" as="targetPoint" />
            <Array as="points">
              <mxPoint x="-400" y="1930" />
            </Array>
          </mxGeometry>
        </mxCell>
        <mxCell id="Bfotkhen-oeafZtFKZVV-98" value="" style="endArrow=classic;html=1;rounded=0;entryX=0.5;entryY=0;entryDx=0;entryDy=0;" edge="1" parent="WIyWlLk6GJQsqaUBKTNV-1" target="Bfotkhen-oeafZtFKZVV-93">
          <mxGeometry width="50" height="50" relative="1" as="geometry">
            <mxPoint x="-250" y="1930" as="sourcePoint" />
            <mxPoint x="-190" y="1920" as="targetPoint" />
          </mxGeometry>
        </mxCell>
        <mxCell id="Bfotkhen-oeafZtFKZVV-99" value="" style="endArrow=classic;html=1;rounded=0;entryX=0.5;entryY=0;entryDx=0;entryDy=0;" edge="1" parent="WIyWlLk6GJQsqaUBKTNV-1" target="Bfotkhen-oeafZtFKZVV-95">
          <mxGeometry width="50" height="50" relative="1" as="geometry">
            <mxPoint x="-250" y="1930" as="sourcePoint" />
            <mxPoint x="-480" y="1860" as="targetPoint" />
            <Array as="points">
              <mxPoint x="-110" y="1930" />
            </Array>
          </mxGeometry>
        </mxCell>
        <mxCell id="Bfotkhen-oeafZtFKZVV-100" value="" style="endArrow=classic;html=1;rounded=0;exitX=0;exitY=0.5;exitDx=0;exitDy=0;entryX=0.5;entryY=0;entryDx=0;entryDy=0;" edge="1" parent="WIyWlLk6GJQsqaUBKTNV-1" source="Bfotkhen-oeafZtFKZVV-45" target="Bfotkhen-oeafZtFKZVV-107">
          <mxGeometry width="50" height="50" relative="1" as="geometry">
            <mxPoint x="-390" y="850" as="sourcePoint" />
            <mxPoint x="-1280" y="830" as="targetPoint" />
            <Array as="points">
              <mxPoint x="-1440" y="840" />
            </Array>
          </mxGeometry>
        </mxCell>
        <mxCell id="Bfotkhen-oeafZtFKZVV-101" value="" style="endArrow=none;dashed=1;html=1;dashPattern=1 3;strokeWidth=2;rounded=0;" edge="1" parent="WIyWlLk6GJQsqaUBKTNV-1">
          <mxGeometry width="50" height="50" relative="1" as="geometry">
            <mxPoint x="-250" y="2190" as="sourcePoint" />
            <mxPoint x="-250" y="2130" as="targetPoint" />
          </mxGeometry>
        </mxCell>
        <mxCell id="Bfotkhen-oeafZtFKZVV-102" value="" style="endArrow=classic;html=1;rounded=0;" edge="1" parent="WIyWlLk6GJQsqaUBKTNV-1" target="Bfotkhen-oeafZtFKZVV-103">
          <mxGeometry width="50" height="50" relative="1" as="geometry">
            <mxPoint x="-250" y="2200" as="sourcePoint" />
            <mxPoint x="-520" y="2140" as="targetPoint" />
            <Array as="points">
              <mxPoint x="-960" y="2200" />
            </Array>
          </mxGeometry>
        </mxCell>
        <mxCell id="Bfotkhen-oeafZtFKZVV-103" value="Firebase Realtime Database" style="shape=card;whiteSpace=wrap;html=1;" vertex="1" parent="WIyWlLk6GJQsqaUBKTNV-1">
          <mxGeometry x="-1000" y="1010" width="80" height="100" as="geometry" />
        </mxCell>
        <mxCell id="Bfotkhen-oeafZtFKZVV-107" value="Checkout" style="rhombus;whiteSpace=wrap;html=1;" vertex="1" parent="WIyWlLk6GJQsqaUBKTNV-1">
          <mxGeometry x="-1480" y="1020" width="80" height="80" as="geometry" />
        </mxCell>
        <mxCell id="Bfotkhen-oeafZtFKZVV-108" value="CartItem" style="rhombus;whiteSpace=wrap;html=1;" vertex="1" parent="WIyWlLk6GJQsqaUBKTNV-1">
          <mxGeometry x="-1170" y="1020" width="80" height="80" as="geometry" />
        </mxCell>
        <mxCell id="Bfotkhen-oeafZtFKZVV-109" value="CarItemAdapter" style="rhombus;whiteSpace=wrap;html=1;" vertex="1" parent="WIyWlLk6GJQsqaUBKTNV-1">
          <mxGeometry x="-1320" y="1020" width="80" height="80" as="geometry" />
        </mxCell>
        <mxCell id="Bfotkhen-oeafZtFKZVV-111" value="" style="endArrow=classic;html=1;rounded=0;exitX=0;exitY=0.5;exitDx=0;exitDy=0;exitPerimeter=0;entryX=1;entryY=0.5;entryDx=0;entryDy=0;" edge="1" parent="WIyWlLk6GJQsqaUBKTNV-1" source="Bfotkhen-oeafZtFKZVV-103" target="Bfotkhen-oeafZtFKZVV-108">
          <mxGeometry width="50" height="50" relative="1" as="geometry">
            <mxPoint x="-940" y="1230" as="sourcePoint" />
            <mxPoint x="-890" y="1180" as="targetPoint" />
          </mxGeometry>
        </mxCell>
        <mxCell id="Bfotkhen-oeafZtFKZVV-112" value="" style="endArrow=classic;html=1;rounded=0;exitX=0;exitY=0.5;exitDx=0;exitDy=0;entryX=1;entryY=0.5;entryDx=0;entryDy=0;" edge="1" parent="WIyWlLk6GJQsqaUBKTNV-1" source="Bfotkhen-oeafZtFKZVV-108" target="Bfotkhen-oeafZtFKZVV-109">
          <mxGeometry width="50" height="50" relative="1" as="geometry">
            <mxPoint x="-940" y="1230" as="sourcePoint" />
            <mxPoint x="-890" y="1180" as="targetPoint" />
          </mxGeometry>
        </mxCell>
        <mxCell id="Bfotkhen-oeafZtFKZVV-113" value="" style="endArrow=classic;html=1;rounded=0;exitX=0;exitY=0.5;exitDx=0;exitDy=0;entryX=1;entryY=0.5;entryDx=0;entryDy=0;" edge="1" parent="WIyWlLk6GJQsqaUBKTNV-1" source="Bfotkhen-oeafZtFKZVV-109" target="Bfotkhen-oeafZtFKZVV-107">
          <mxGeometry width="50" height="50" relative="1" as="geometry">
            <mxPoint x="-940" y="1230" as="sourcePoint" />
            <mxPoint x="-890" y="1180" as="targetPoint" />
          </mxGeometry>
        </mxCell>
        <mxCell id="Bfotkhen-oeafZtFKZVV-114" value="" style="endArrow=classic;html=1;rounded=0;exitX=0.5;exitY=1;exitDx=0;exitDy=0;entryX=0;entryY=0.91;entryDx=0;entryDy=0;entryPerimeter=0;" edge="1" parent="WIyWlLk6GJQsqaUBKTNV-1" source="Bfotkhen-oeafZtFKZVV-107" target="Bfotkhen-oeafZtFKZVV-103">
          <mxGeometry width="50" height="50" relative="1" as="geometry">
            <mxPoint x="-1350" y="1250" as="sourcePoint" />
            <mxPoint x="-1300" y="1200" as="targetPoint" />
          </mxGeometry>
        </mxCell>
        <mxCell id="Bfotkhen-oeafZtFKZVV-115" value="Caritem reads under /cart the Items&lt;div&gt;&lt;br&gt;&lt;/div&gt;" style="text;html=1;align=center;verticalAlign=middle;resizable=0;points=[];autosize=1;strokeColor=none;fillColor=none;" vertex="1" parent="WIyWlLk6GJQsqaUBKTNV-1">
          <mxGeometry x="-1210" y="970" width="210" height="40" as="geometry" />
        </mxCell>
        <mxCell id="Bfotkhen-oeafZtFKZVV-116" value="CartitemAdapter projects the Items" style="text;html=1;align=center;verticalAlign=middle;resizable=0;points=[];autosize=1;strokeColor=none;fillColor=none;" vertex="1" parent="WIyWlLk6GJQsqaUBKTNV-1">
          <mxGeometry x="-1430" y="970" width="210" height="30" as="geometry" />
        </mxCell>
        <mxCell id="Bfotkhen-oeafZtFKZVV-117" value="Checkouts adds the items together and saves them&lt;div&gt;&lt;br&gt;&lt;/div&gt;" style="text;html=1;align=center;verticalAlign=middle;resizable=0;points=[];autosize=1;strokeColor=none;fillColor=none;" vertex="1" parent="WIyWlLk6GJQsqaUBKTNV-1">
          <mxGeometry x="-1380" y="1129" width="300" height="40" as="geometry" />
        </mxCell>
        <mxCell id="Bfotkhen-oeafZtFKZVV-118" value="" style="endArrow=classic;html=1;rounded=0;exitX=0;exitY=0.5;exitDx=0;exitDy=0;" edge="1" parent="WIyWlLk6GJQsqaUBKTNV-1" source="Bfotkhen-oeafZtFKZVV-46">
          <mxGeometry width="50" height="50" relative="1" as="geometry">
            <mxPoint x="-880" y="1060" as="sourcePoint" />
            <mxPoint x="-920" y="1060" as="targetPoint" />
            <Array as="points">
              <mxPoint x="-880" y="1060" />
            </Array>
          </mxGeometry>
        </mxCell>
        <mxCell id="Bfotkhen-oeafZtFKZVV-119" value="Bestellhistorie reads the Data and projects the Items and ammount" style="text;html=1;align=center;verticalAlign=middle;resizable=0;points=[];autosize=1;strokeColor=none;fillColor=none;" vertex="1" parent="WIyWlLk6GJQsqaUBKTNV-1">
          <mxGeometry x="-650" y="1098" width="380" height="30" as="geometry" />
        </mxCell>
      </root>
    </mxGraphModel>
  </diagram>
</mxfile>
